<svg aria-hidden="true" style="position: absolute; width: 0; height: 0; overflow: hidden;" version="1.1" xmlns="http://www.w3.org/2000/svg" xmlns:xlink="http://www.w3.org/1999/xlink">
<defs>
<symbol id="icon-Vector-1" viewBox="0 0 29 32">
<title>Vector-1</title>
<path d="M27.393 19.946l-2.982 0.589 3.321 1.911c0.274 0.155 0.45 0.384 0.527 0.688s0.039 0.592-0.116 0.866c-0.167 0.274-0.399 0.449-0.696 0.527s-0.583 0.039-0.857-0.116l-3.321-1.893 0.982 2.857c0.155 0.452 0.083 0.83-0.214 1.134s-0.658 0.426-1.080 0.366c-0.423-0.060-0.711-0.309-0.866-0.75l-1.821-5.357-4.839-2.786v5.589l3.714 4.25c0.191 0.214 0.292 0.446 0.304 0.696s-0.053 0.467-0.196 0.652c-0.143 0.185-0.313 0.333-0.509 0.447s-0.417 0.146-0.661 0.098c-0.244-0.048-0.461-0.178-0.652-0.393l-2-2.286v3.822c0 0.309-0.113 0.577-0.339 0.804s-0.494 0.339-0.804 0.339-0.577-0.113-0.804-0.339c-0.226-0.226-0.339-0.494-0.339-0.804v-3.822l-2 2.286c-0.19 0.214-0.408 0.345-0.652 0.393s-0.464 0.015-0.661-0.098c-0.196-0.113-0.366-0.262-0.509-0.447s-0.208-0.402-0.196-0.652c0.012-0.25 0.113-0.482 0.304-0.696l3.714-4.25v-5.589l-4.839 2.786-1.821 5.357c-0.155 0.44-0.443 0.69-0.866 0.75s-0.783-0.063-1.080-0.366c-0.298-0.304-0.369-0.681-0.214-1.134l0.982-2.857-3.321 1.893c-0.274 0.155-0.56 0.193-0.857 0.116s-0.53-0.253-0.696-0.527c-0.155-0.274-0.193-0.563-0.116-0.866s0.253-0.533 0.527-0.688l3.321-1.911-2.982-0.589c-0.345-0.071-0.595-0.244-0.75-0.518s-0.205-0.551-0.152-0.83c0.054-0.28 0.205-0.518 0.455-0.714s0.548-0.259 0.893-0.187l5.536 1.107 4.839-2.804-4.839-2.804-5.536 1.107c-0.048 0.012-0.125 0.018-0.232 0.018-0.321 0-0.583-0.107-0.786-0.321s-0.315-0.452-0.339-0.714c-0.024-0.262 0.042-0.518 0.196-0.768s0.393-0.405 0.714-0.464l2.982-0.589-3.321-1.911c-0.274-0.155-0.449-0.384-0.527-0.688s-0.039-0.592 0.116-0.866c0.155-0.274 0.387-0.452 0.696-0.536s0.595-0.042 0.857 0.125l3.321 1.893-0.982-2.857c-0.155-0.452-0.083-0.83 0.214-1.134s0.658-0.426 1.080-0.366c0.423 0.060 0.711 0.31 0.866 0.75l1.821 5.357 4.839 2.786v-5.589l-3.714-4.25c-0.19-0.214-0.292-0.446-0.304-0.696s0.054-0.467 0.196-0.652c0.143-0.185 0.313-0.333 0.509-0.446s0.417-0.146 0.661-0.098c0.244 0.048 0.461 0.179 0.652 0.393l2 2.286v-3.821c0-0.31 0.113-0.577 0.339-0.804s0.494-0.339 0.804-0.339c0.309 0 0.577 0.113 0.804 0.339s0.339 0.494 0.339 0.804v3.821l2-2.286c0.191-0.214 0.408-0.345 0.652-0.393s0.464-0.015 0.661 0.098c0.196 0.113 0.366 0.262 0.509 0.446s0.208 0.402 0.196 0.652c-0.012 0.25-0.113 0.482-0.304 0.696l-3.714 4.25v5.589l4.839-2.786 1.821-5.357c0.155-0.44 0.444-0.69 0.866-0.75s0.783 0.063 1.080 0.366c0.298 0.304 0.369 0.682 0.214 1.134l-0.982 2.857 3.321-1.893c0.274-0.155 0.56-0.193 0.857-0.116s0.53 0.253 0.696 0.527c0.155 0.274 0.194 0.563 0.116 0.866s-0.253 0.533-0.527 0.688l-3.321 1.911 2.982 0.589c0.321 0.060 0.559 0.214 0.714 0.464s0.22 0.506 0.196 0.768c-0.024 0.262-0.137 0.5-0.339 0.714s-0.464 0.321-0.786 0.321c-0.107 0-0.185-0.006-0.232-0.018l-5.536-1.107-4.839 2.804 4.839 2.804 5.536-1.107c0.345-0.071 0.643-0.009 0.893 0.187s0.402 0.434 0.455 0.714c0.054 0.28 0.003 0.557-0.152 0.83s-0.405 0.446-0.75 0.518z"></path>
</symbol>
</defs>
</svg>
